<?xml version="1.0" standalone="no"?>
<!DOCTYPE svg PUBLIC "-//W3C//DTD SVG 20010904//EN"
 "http://www.w3.org/TR/2001/REC-SVG-20010904/DTD/svg10.dtd">
<svg version="1.0" xmlns="http://www.w3.org/2000/svg"
 width="450.000000pt" height="404.000000pt" viewBox="0 0 450.000000 404.000000"
 preserveAspectRatio="xMidYMid meet">
<metadata>
Created by potrace 1.10, written by Peter Selinger 2001-2011
</metadata>
<g transform="translate(0.000000,404.000000) scale(0.050000,-0.050000)"
fill="#000000" stroke="none">
<path d="M0 4040 l0 -4040 4467 0 c4302 0 4468 1 4500 37 30 33 33 342 33
4040 l0 4003 -4500 0 -4500 0 0 -4040z m8883 3227 c-9 -119 -24 -234 -33 -255
-10 -24 -9 -34 2 -27 23 14 29 -47 15 -144 -23 -157 -40 1 -33 315 7 355 15
418 47 361 11 -20 12 -120 2 -250z m-1133 -86 c838 -233 1200 -748 1200 -1711
0 -789 -297 -1295 -970 -1653 -322 -171 -1060 -337 -1501 -337 -74 0 -121 -29
-108 -67 4 -13 44 -324 89 -693 45 -368 91 -722 102 -785 11 -64 16 -122 11
-130 -5 -8 -361 332 -791 756 l-781 771 -42 325 -41 326 60 93 c401 627 364
1725 -80 2377 -80 117 -338 370 -425 417 -40 21 -73 45 -73 53 0 17 -59 9 940
128 424 51 932 113 1130 139 483 63 1035 59 1280 -9z m-4200 -491 c568 -119
987 -526 1102 -1070 160 -755 -135 -1516 -720 -1862 -97 -57 -92 -76 53 -212
68 -64 435 -423 815 -799 776 -767 952 -939 1077 -1049 100 -88 94 -118 -22
-118 -46 0 -413 -41 -816 -91 l-733 -90 -398 405 c-219 223 -597 608 -841 856
-244 247 -461 472 -483 499 l-39 49 -198 -24 c-108 -13 -222 -24 -252 -24 -69
0 -76 107 65 -1035 66 -534 118 -973 115 -974 -3 -2 -252 -33 -555 -69 -302
-35 -603 -74 -667 -85 -64 -11 -120 -17 -124 -13 -3 4 -79 600 -168 1326 -90
726 -203 1649 -252 2050 -50 402 -126 1020 -170 1374 -43 353 -79 656 -79 672
0 21 37 31 145 39 80 6 622 70 1205 142 583 72 1110 134 1170 137 261 14 619
-2 770 -34z m5330 -2730 c0 -175 8 -323 18 -329 24 -15 21 -1094 -3 -1126 -11
-13 -16 -55 -11 -93 4 -38 1 -65 -8 -59 -9 5 -16 -29 -16 -75 0 -130 -19 -81
-32 79 -7 95 -3 143 11 143 28 0 28 245 -1 274 -13 13 -18 76 -11 169 11 158
11 164 8 262 -1 36 6 118 15 183 12 88 10 115 -7 104 -17 -10 -23 25 -23 127
0 99 7 141 25 141 19 1 19 4 1 16 -13 8 -26 60 -28 114 -3 55 -15 107 -27 115
-14 10 -13 14 4 15 16 0 25 29 25 78 0 107 21 203 42 190 10 -5 18 -153 18
-328z m3 -1940 l-18 -110 -2 100 c-2 55 4 150 12 210 l15 110 6 -100 c3 -55
-3 -149 -13 -210z m-5 -413 c-14 -26 -32 -47 -41 -47 -21 0 4 128 26 137 9 3
18 26 20 50 2 24 7 12 12 -25 4 -38 -3 -90 -17 -115z m22 -1249 c0 -8 -16 -20
-35 -29 -31 -13 -30 -16 9 -27 44 -12 44 -12 6 -62 -40 -53 -102 -32 -68 23
28 44 31 101 5 85 -14 -8 -18 -5 -10 8 15 23 93 25 93 2z m-2184 -78 c145 0
-12 -42 -187 -49 -195 -9 -185 0 41 38 33 6 64 22 68 36 7 20 10 20 17 0 5
-14 32 -25 61 -25z m-2826 -2 c11 0 194 1 406 3 213 1 391 -2 397 -8 6 -5 24
-5 40 1 43 16 927 18 927 2 0 -8 -79 -17 -175 -21 l-175 -7 208 -4 c170 -3
216 2 245 29 24 22 37 25 37 9 0 -13 10 -18 21 -11 28 17 343 28 369 12 11 -6
45 -9 75 -6 30 3 55 -2 55 -13 0 -10 -55 -24 -123 -31 -205 -22 -2671 -15
-2637 7 21 13 -29 21 -160 23 l-190 4 160 12 c128 9 335 9 520 -1z m3414 -31
c-3 -9 -34 -14 -70 -11 -35 3 -98 8 -139 10 -41 2 -75 11 -75 20 0 9 65 12
145 7 80 -5 143 -17 139 -26z m-3864 -14 c50 -3 -58 -7 -240 -7 -181 -1 -310
4 -285 11 43 12 320 10 525 -4z"/>
<path d="M6820 7042 c0 -11 -13 -16 -30 -9 -16 6 -30 3 -30 -6 0 -10 -38 -16
-83 -13 -46 2 -93 -1 -103 -8 -19 -12 -75 -19 -284 -35 -55 -4 -127 -13 -160
-20 -33 -6 -154 -21 -270 -32 -294 -29 -287 -28 -314 -45 -13 -8 -56 -16 -96
-18 -39 -1 -76 -10 -81 -18 -6 -9 -23 -11 -40 -5 -16 6 -45 4 -64 -4 -19 -9
-80 -18 -135 -19 -55 -2 -118 -5 -141 -7 -59 -4 -59 -87 1 -152 28 -29 50 -62
50 -72 0 -10 16 -35 35 -54 56 -56 125 -159 114 -169 -6 -6 4 -22 21 -36 16
-14 30 -42 30 -62 0 -21 9 -38 20 -38 11 0 19 -7 17 -15 -2 -8 11 -46 28 -84
17 -38 26 -82 19 -98 -6 -18 -2 -24 10 -17 25 16 45 -48 46 -140 0 -35 9 -69
20 -76 11 -7 20 -33 20 -58 0 -25 6 -51 13 -58 7 -8 16 -97 20 -199 14 -341
17 -385 33 -410 10 -15 7 -25 -8 -25 -14 0 -20 -5 -14 -11 6 -6 3 -44 -7 -85
-10 -41 -21 -125 -25 -188 -3 -63 -16 -127 -29 -142 -12 -15 -17 -34 -9 -41 7
-7 3 -13 -8 -13 -11 0 -19 -31 -17 -70 2 -38 -5 -70 -15 -70 -10 0 -13 -13 -7
-30 7 -16 4 -30 -5 -30 -16 0 -34 -41 -52 -115 -4 -14 -34 -74 -67 -133 -34
-59 -55 -113 -49 -120 7 -6 4 -12 -6 -12 -29 0 -13 -341 21 -438 17 -48 31
-105 31 -126 0 -22 16 -44 36 -49 20 -5 53 -41 73 -78 21 -38 46 -69 56 -69
10 0 83 -65 162 -145 79 -80 168 -161 198 -181 30 -19 55 -44 55 -56 0 -11 14
-34 30 -51 17 -16 30 -24 30 -18 0 7 23 -10 51 -38 29 -29 61 -46 73 -38 13 7
16 4 9 -8 -20 -33 9 -89 40 -77 18 7 27 -5 27 -38 0 -34 18 -58 60 -80 33 -17
60 -38 60 -46 0 -9 26 -31 58 -50 l58 -34 -8 115 c-5 63 -14 129 -21 145 -7
17 -14 64 -16 105 -6 107 -9 118 -26 108 -8 -5 -16 42 -17 104 -4 250 -14 395
-29 435 -12 33 1 63 59 133 107 129 129 149 157 140 14 -5 25 0 25 10 0 20 -2
20 163 33 63 5 166 16 230 24 65 9 134 13 154 10 23 -3 32 3 24 16 -7 12 -6
23 3 25 68 10 106 9 106 -4 0 -8 22 -13 50 -12 27 2 50 9 50 16 0 8 23 11 50
8 28 -3 50 1 50 8 0 8 11 15 25 17 39 3 222 45 255 58 17 7 43 15 58 18 15 3
36 17 45 32 13 21 16 21 17 0 0 -20 8 -19 31 5 18 17 44 31 59 31 15 0 39 11
54 25 14 14 40 25 56 25 17 0 28 11 25 25 -3 14 2 24 10 23 40 -7 66 4 55 22
-7 11 1 15 17 8 16 -6 42 7 58 31 16 22 34 35 42 28 7 -7 35 11 62 40 27 29
59 53 71 53 12 0 17 9 10 20 -7 11 1 20 17 20 17 0 36 18 43 39 7 24 23 35 41
28 16 -6 30 -1 32 11 1 12 3 30 5 40 1 10 31 46 67 80 35 34 59 62 52 62 -6 0
-1 14 13 30 14 17 20 30 13 30 -6 0 11 22 38 49 27 27 49 72 49 100 0 30 11
51 28 51 30 0 41 34 63 185 7 53 22 100 31 106 10 6 18 50 18 98 0 47 13 118
29 156 28 67 31 306 5 348 -6 10 -13 58 -16 107 -3 50 -17 114 -31 144 -15 30
-27 76 -27 104 0 27 -19 82 -42 121 -23 39 -35 71 -26 71 8 0 -6 23 -32 50
-26 28 -41 50 -35 50 7 0 4 25 -6 55 -24 69 -130 195 -164 195 -14 0 -25 9
-26 20 -1 46 -54 112 -115 142 -35 18 -115 67 -177 109 -62 42 -119 71 -126
63 -7 -7 -20 -2 -28 11 -8 13 -37 28 -64 33 -27 5 -53 11 -59 13 -5 2 -19 5
-30 7 -11 2 -56 14 -101 27 -44 14 -101 20 -125 16 -25 -5 -40 -1 -34 9 6 10
-7 16 -30 15 -22 -2 -40 -12 -40 -22 0 -10 -13 -7 -30 7 -16 13 -43 19 -60 13
-16 -7 -30 -1 -30 13 -1 17 -6 16 -18 -3 -10 -16 -22 -19 -29 -8 -13 22 -293
20 -329 -3 -14 -8 -24 -3 -25 12 0 17 -9 14 -27 -9 -30 -40 -54 -46 -47 -12 3
12 -6 26 -20 31 -14 5 -25 0 -25 -12z m184 -692 c47 -6 100 -12 116 -13 17 -2
64 -24 105 -50 41 -26 88 -47 105 -47 16 0 30 -7 30 -17 0 -9 22 -28 50 -43
27 -14 55 -44 61 -65 7 -21 18 -33 24 -26 15 14 139 -158 175 -244 16 -36 38
-65 50 -65 12 0 17 -8 11 -18 -6 -10 -1 -44 11 -75 43 -109 38 -444 -10 -684
-2 -14 -16 -33 -30 -42 -14 -8 -25 -21 -24 -28 5 -37 -2 -52 -51 -100 -32 -32
-42 -53 -25 -53 15 0 7 -14 -18 -32 -64 -45 -154 -136 -149 -151 2 -7 -19 -19
-46 -25 -27 -7 -49 -22 -49 -32 0 -11 -13 -20 -30 -20 -16 0 -30 -10 -30 -21
0 -12 -9 -16 -20 -9 -11 7 -21 -4 -22 -24 -1 -23 -5 -26 -12 -10 -8 20 -19 18
-50 -10 -22 -20 -46 -34 -53 -31 -23 9 -143 -19 -143 -33 0 -7 -16 -15 -35
-17 -124 -14 -189 -25 -210 -38 -25 -16 -83 -27 -135 -27 -16 0 -61 -1 -100
-2 -187 -4 -221 -1 -279 25 -34 15 -66 43 -73 62 -6 19 -24 35 -39 35 -16 0
-29 14 -29 30 0 17 -7 30 -17 30 -9 0 -17 11 -18 25 -1 14 -10 70 -21 125 -12
54 -16 106 -11 115 5 8 2 26 -6 40 -9 14 -18 67 -20 118 -2 51 -10 127 -17
170 -7 42 -16 113 -21 157 -14 127 -32 238 -41 253 -5 8 0 20 10 26 12 7 8 33
-8 65 -16 29 -23 61 -17 70 6 10 -2 33 -16 51 -21 25 -21 29 -1 17 19 -11 23
-3 15 31 -6 26 -14 65 -17 87 -3 22 -12 51 -21 65 -8 14 -6 25 5 25 14 0 15
16 4 46 -25 65 21 161 127 266 84 83 129 113 101 68 -15 -24 94 21 113 47 6 9
18 7 26 -5 8 -13 22 -17 32 -11 32 19 92 26 334 39 129 7 238 16 242 21 5 4
24 -1 44 -12 20 -10 75 -23 123 -29z"/>
<path d="M6370 6147 c-344 -36 -336 -33 -322 -102 7 -30 53 -392 103 -804 50
-411 94 -754 99 -761 26 -42 740 97 914 179 451 212 566 919 212 1293 -201
212 -420 255 -1006 195z"/>
<path d="M2700 6527 c-71 -15 -177 -28 -235 -29 -62 -1 -101 -9 -94 -20 8 -12
-8 -15 -37 -7 -27 7 -55 3 -63 -9 -8 -13 -29 -14 -61 -2 -26 10 -68 13 -94 7
-25 -6 -62 -10 -81 -10 -19 0 -35 -9 -35 -21 0 -13 -11 -12 -30 4 -16 14 -30
16 -30 6 0 -11 -11 -20 -25 -20 -14 -1 -63 -7 -110 -14 -48 -8 -85 -6 -85 5 0
10 -22 18 -50 18 -27 0 -50 -8 -50 -19 0 -10 7 -14 16 -8 9 5 29 1 45 -9 35
-22 37 -22 -206 -24 -107 -1 -195 -9 -195 -18 0 -8 -49 -11 -109 -7 -61 4
-115 -1 -122 -12 -8 -13 -23 -11 -42 4 -23 20 -34 16 -58 -17 -25 -37 -37 -39
-100 -19 -55 17 -76 16 -87 -3 -17 -27 -64 -24 -85 6 -9 11 -25 9 -42 -5 -16
-13 -35 -18 -42 -10 -7 7 -13 1 -13 -13 0 -16 -15 -22 -39 -15 -22 5 -48 -1
-59 -14 -27 -32 -25 -292 1 -292 12 0 16 -13 10 -29 -6 -17 -3 -35 8 -42 25
-15 25 -109 0 -109 -27 0 -3 -60 47 -119 36 -42 36 -45 4 -20 -36 27 -37 26
-14 -16 13 -25 18 -55 12 -65 -7 -11 -7 -29 1 -41 11 -19 31 -189 33 -289 0
-22 9 -69 20 -105 10 -36 22 -121 26 -190 4 -69 12 -161 20 -205 12 -77 25
-201 28 -276 1 -24 11 -31 27 -21 20 12 20 8 1 -15 -26 -32 -14 -171 15 -189
9 -5 12 -40 6 -76 -13 -80 27 -357 54 -374 20 -12 14 -118 -8 -155 -8 -12 -6
-26 3 -31 9 -6 14 -65 10 -131 -3 -66 4 -126 15 -132 11 -7 14 -21 8 -31 -6
-11 -4 -19 6 -19 20 0 26 -49 28 -225 1 -74 9 -135 19 -135 10 0 16 -20 15
-45 -1 -25 5 -90 13 -145 8 -55 17 -127 19 -160 2 -33 9 -73 16 -90 7 -16 17
-84 23 -150 8 -112 44 -468 60 -597 4 -32 18 -64 32 -73 18 -11 15 -21 -13
-37 -20 -12 -27 -22 -14 -22 27 -1 50 -101 23 -101 -11 0 -14 -34 -8 -75 6
-41 11 -92 11 -113 1 -21 7 -33 14 -25 24 23 73 -66 50 -93 -23 -28 72 -32
115 -5 14 8 70 16 125 16 63 1 104 11 111 27 6 16 43 25 103 23 52 -2 107 5
122 15 18 11 32 8 37 -7 6 -19 15 -19 36 -2 15 13 75 25 133 26 58 2 105 12
106 23 0 34 48 103 48 72 1 -16 6 -24 12 -18 6 6 0 35 -14 64 -20 45 -18 57
15 84 21 17 27 26 14 19 -27 -14 -52 50 -35 94 6 17 -2 64 -19 104 -17 41 -31
94 -32 118 0 23 -5 115 -12 203 -7 88 -14 179 -15 202 -2 24 -13 39 -27 34
-18 -7 -18 5 0 55 19 52 19 67 -1 74 -17 6 -25 55 -25 152 0 88 -7 133 -18
116 -11 -18 -19 2 -21 60 -7 146 -9 157 -30 157 -12 0 -8 9 7 19 17 10 28 47
26 91 -2 40 11 94 28 121 17 26 26 57 19 68 -21 33 53 95 133 109 40 7 76 23
80 35 4 12 58 23 122 23 63 1 114 7 114 14 0 6 36 12 80 11 44 -1 80 -9 80
-18 0 -10 12 -8 28 5 22 18 30 13 40 -25 9 -36 30 -52 83 -62 51 -9 76 -27 90
-63 10 -28 28 -45 39 -38 11 7 20 -2 20 -19 0 -27 22 -39 63 -34 7 1 19 -22
26 -52 12 -47 79 -114 114 -115 24 0 46 -32 47 -66 0 -23 14 -32 45 -29 29 3
45 -6 45 -26 0 -17 14 -35 30 -42 17 -6 28 -23 25 -36 -6 -31 110 -131 153
-131 18 0 32 -14 32 -31 0 -17 7 -27 16 -21 9 5 33 -21 53 -59 20 -37 43 -64
50 -60 8 5 29 -18 48 -50 20 -32 48 -59 64 -59 16 0 29 -12 29 -26 0 -15 41
-55 90 -90 50 -35 90 -76 90 -91 0 -16 17 -33 39 -38 26 -7 35 -23 29 -48 -6
-23 12 -62 48 -102 64 -72 84 -80 84 -35 0 36 53 40 65 5 5 -14 -6 -36 -23
-49 -28 -20 -25 -26 23 -44 30 -12 55 -35 55 -53 0 -18 11 -28 25 -23 41 14
99 -26 86 -60 -7 -18 4 -43 24 -58 41 -31 93 -37 75 -8 -7 11 -4 20 7 20 11 0
23 -9 26 -20 8 -23 211 -33 232 -12 8 8 1 23 -16 33 -22 14 -16 18 25 19 30 0
66 -12 80 -28 18 -19 40 -22 71 -10 25 9 83 17 130 16 47 -1 135 4 195 12 61
7 157 17 215 23 72 8 105 20 105 39 0 21 17 26 60 18 33 -6 60 -2 60 8 0 28
-60 44 -61 16 -1 -13 -12 -4 -24 21 -12 25 -42 51 -68 58 -26 6 -42 19 -36 28
6 10 26 11 45 4 30 -11 31 -8 7 21 -16 19 -45 34 -65 34 -21 0 -36 11 -33 25
3 14 -8 22 -25 18 -16 -3 -23 0 -15 8 22 22 -24 69 -67 69 -22 0 -38 14 -38
32 0 20 -11 28 -29 21 -20 -8 -27 4 -25 43 3 45 -4 53 -39 48 -30 -4 -42 4
-40 27 2 19 -15 44 -37 56 -132 76 -152 96 -126 129 19 23 19 28 1 17 -14 -9
-48 11 -85 51 -36 40 -55 51 -47 29 12 -33 8 -35 -30 -15 -29 16 -43 42 -43
83 0 48 -13 66 -70 93 -38 18 -70 41 -70 51 0 9 -9 12 -20 5 -12 -7 -15 -21
-9 -31 6 -11 2 -19 -10 -19 -27 0 -26 12 1 64 19 36 12 51 -58 114 -143 130
-184 162 -205 162 -12 0 -16 9 -9 20 7 11 -2 20 -19 20 -17 0 -31 11 -31 24 0
14 -21 43 -46 65 -26 23 -53 57 -60 76 -7 19 -25 30 -41 23 -34 -13 -63 24
-33 42 30 19 4 50 -31 37 -16 -6 -29 -1 -29 11 0 12 -14 22 -31 22 -16 0 -35
13 -42 30 -6 16 -19 25 -29 19 -10 -6 -12 3 -6 20 9 22 0 31 -29 31 -22 0 -46
9 -53 20 -7 12 -21 15 -31 9 -11 -6 -19 -1 -19 12 0 13 14 18 30 12 17 -7 30
-2 30 9 0 11 10 14 21 7 12 -7 10 6 -4 29 -15 23 -42 42 -61 42 -18 0 -39 8
-44 18 -17 26 48 144 72 130 13 -8 15 3 7 30 -14 43 25 102 69 102 12 0 18 7
13 15 -5 8 35 58 88 110 78 77 98 88 105 60 9 -33 9 -33 12 0 1 19 11 35 21
35 11 0 29 18 41 40 18 33 16 37 -13 26 -23 -9 -29 -5 -19 11 8 12 31 23 51
23 22 0 46 25 62 65 14 36 42 81 62 101 21 19 37 58 37 85 0 35 11 49 38 49
29 0 36 -11 29 -45 -6 -31 3 -23 31 25 49 84 52 120 12 120 -19 0 -30 19 -30
51 0 29 9 46 20 39 11 -7 20 -3 20 8 0 11 12 16 27 10 34 -13 60 121 34 171
-10 18 -11 45 -2 60 13 21 19 18 27 -11 12 -47 17 21 17 248 0 94 -9 177 -22
193 -17 20 -16 29 3 36 21 7 21 26 1 102 -14 51 -25 115 -25 142 0 26 -14 62
-31 80 -19 19 -23 31 -9 31 13 0 -7 38 -43 84 -37 46 -65 87 -62 90 25 29 -5
87 -56 109 -33 15 -65 46 -71 70 -8 31 -23 40 -55 33 -35 -8 -37 -5 -13 12 20
15 22 21 5 22 -14 0 -25 14 -25 30 0 17 -7 30 -15 30 -8 0 -52 36 -98 79 -45
44 -87 74 -93 69 -6 -6 -28 -2 -48 9 -21 11 -50 13 -64 4 -15 -9 -49 -4 -79
11 -29 15 -70 28 -90 28 -25 0 -33 10 -26 30 7 18 0 30 -18 30 -16 0 -29 8
-29 18 0 10 -83 18 -185 19 -102 1 -261 6 -355 10 -103 5 -221 -3 -300 -20z
m64 -645 c40 -1 85 -13 100 -27 14 -14 52 -25 83 -24 32 0 77 -14 100 -32 24
-18 53 -29 66 -25 30 11 54 -27 27 -44 -44 -27 -16 -47 52 -36 62 10 71 7 67
-26 -7 -55 20 -107 50 -96 29 11 58 -45 39 -75 -13 -22 60 -100 80 -86 7 5 7
3 2 -4 -6 -8 3 -33 18 -57 32 -49 81 -339 62 -370 -21 -34 9 -99 41 -87 34 13
37 -2 8 -55 -12 -21 -30 -34 -40 -27 -11 6 -15 20 -9 29 6 9 3 22 -6 27 -8 6
-17 -7 -19 -28 -1 -21 6 -43 16 -50 11 -6 18 -36 17 -65 l-2 -54 -15 50 c-13
45 -16 42 -29 -35 -11 -59 -39 -110 -91 -164 -42 -43 -81 -105 -87 -138 -9
-41 -23 -58 -48 -56 -20 2 -34 -8 -31 -22 3 -14 -4 -25 -15 -25 -11 0 -20 -11
-20 -25 0 -14 -29 -38 -65 -54 -36 -16 -90 -53 -120 -84 -49 -48 -68 -54 -155
-47 -56 5 -100 0 -100 -11 0 -10 -22 -19 -50 -19 -27 0 -50 -11 -50 -25 0 -18
-45 -25 -155 -25 -85 -1 -190 -8 -232 -17 -43 -9 -98 -18 -121 -21 -24 -2 -54
-11 -66 -18 -12 -7 -33 0 -46 16 -28 34 -80 40 -80 10 0 -11 -9 -20 -20 -20
-11 0 -20 17 -20 38 0 24 -22 46 -60 59 -33 12 -60 31 -60 44 0 13 -13 18 -30
12 -16 -7 -30 -3 -30 8 0 10 9 19 20 19 11 0 20 23 20 50 0 31 -11 50 -30 50
-20 0 -30 20 -30 61 0 34 -8 56 -19 50 -10 -6 -24 -3 -31 9 -7 11 -2 20 10 20
12 0 16 10 9 22 -8 12 -2 30 13 40 20 13 21 22 6 33 -13 8 -29 38 -37 65 -10
38 -9 43 7 20 17 -24 21 -21 21 20 0 68 -21 141 -37 131 -7 -4 -15 32 -17 80
-6 132 -10 149 -32 149 -13 0 -11 10 3 24 27 27 33 136 7 136 -20 0 -22 15
-30 170 -3 66 2 140 10 164 11 33 6 50 -19 65 -28 17 -29 24 -7 38 16 10 24
30 20 43 -11 31 97 144 175 183 32 17 88 45 125 64 36 18 75 28 86 21 10 -6
32 -1 48 13 22 18 29 18 29 0 0 -13 7 -19 16 -14 9 6 87 15 175 21 87 5 188
16 224 23 41 9 76 5 95 -11 25 -20 30 -19 30 8 0 25 13 31 55 24 30 -5 88 -9
129 -10z m1254 -3840 c15 -10 21 -28 13 -40 -20 -32 -38 -27 -66 18 -28 44 -1
56 53 22z"/>
<path d="M2045 5641 c-156 -18 -290 -39 -297 -47 -8 -7 24 -317 70 -688 45
-372 82 -696 82 -720 0 -68 14 -69 389 -16 825 115 1077 341 1010 909 -64 547
-339 671 -1254 562z"/>
</g>
</svg>
