<svg width="48" height="48" viewBox="0 0 48 48" fill="none" xmlns="http://www.w3.org/2000/svg">
<g clip-path="url(#clip0_2_1722)">
<rect width="48" height="48" rx="8" fill="#303030"/>
<g clip-path="url(#clip1_2_1722)">
<g clip-path="url(#clip2_2_1722)">
<path d="M24 6C14.061 6 6 14.2632 6 24.455C6 32.609 11.157 39.5266 18.3105 41.9674C19.209 42.1381 19.5 41.566 19.5 41.08V37.6442C14.493 38.7607 13.4505 35.4665 13.4505 35.4665C12.6315 33.3335 11.451 32.766 11.451 32.766C9.81749 31.6203 11.5755 31.6448 11.5755 31.6448C13.383 31.774 14.334 33.5472 14.334 33.5472C15.939 36.3678 18.5445 35.5528 19.572 35.0806C19.7325 33.8887 20.199 33.0736 20.715 32.6137C16.7175 32.1446 12.5145 30.5621 12.5145 23.4923C12.5145 21.4761 13.218 19.8305 14.3685 18.5387C14.1825 18.0727 13.566 16.1949 14.544 13.6542C14.544 13.6542 16.056 13.159 19.4955 15.5459C20.931 15.1368 22.47 14.9322 24 14.9245C25.53 14.9322 27.0704 15.1368 28.509 15.5459C31.9456 13.159 33.4545 13.6542 33.4545 13.6542C34.4341 16.1964 33.8176 18.0742 33.6314 18.5387C34.7865 19.8305 35.484 21.4776 35.484 23.4923C35.484 30.5806 31.2734 32.1416 27.2656 32.5984C27.9105 33.1705 28.5 34.2931 28.5 36.0155V41.08C28.5 41.5705 28.788 42.1472 29.7015 41.9658C36.8489 39.5221 42 32.606 42 24.455C42 14.2632 33.9405 6 24 6Z" fill="white"/>
</g>
</g>
<rect x="0.5" y="0.5" width="47" height="47" rx="7.5" stroke="#606060"/>
</g>
<defs>
<clipPath id="clip0_2_1722">
<rect width="48" height="48" rx="8" fill="white"/>
</clipPath>
<clipPath id="clip1_2_1722">
<rect width="36" height="36" fill="white" transform="translate(6 6)"/>
</clipPath>
<clipPath id="clip2_2_1722">
<rect width="36" height="36" fill="white" transform="translate(6 6)"/>
</clipPath>
</defs>
</svg>
