<svg width="48" height="48" viewBox="0 0 48 48" fill="none" xmlns="http://www.w3.org/2000/svg">
<g clip-path="url(#clip0_2_1742)">
<rect width="48" height="48" rx="8" fill="#303030"/>
<g clip-path="url(#clip1_2_1742)">
<path d="M13.9611 28.8258C13.9584 29.8063 13.5676 30.7458 12.8744 31.4391C12.1811 32.1323 11.2416 32.5231 10.2611 32.5258C9.28039 32.524 8.34026 32.1339 7.64627 31.4409C6.95228 30.7479 6.56088 29.8084 6.55762 28.8276C6.55762 26.7891 8.22262 25.1258 10.2594 25.1258H13.9611V28.8258ZM15.8252 28.8258C15.8252 26.7873 17.4902 25.1241 19.5288 25.1241C21.5655 25.1241 23.2288 26.7873 23.2288 28.8241V38.0952C23.2269 39.0761 22.8365 40.0163 22.1431 40.7101C21.4497 41.4039 20.5097 41.7947 19.5288 41.797C18.548 41.7947 17.6081 41.4042 16.9144 40.7108C16.2207 40.0175 15.8298 39.0777 15.827 38.097V28.8276L15.8252 28.8258ZM19.5288 13.9607C18.548 13.9583 17.6081 13.5678 16.9144 12.8745C16.2207 12.1812 15.8298 11.2414 15.827 10.2607C15.8279 9.27962 16.2177 8.33895 16.9109 7.64476C17.6041 6.95057 18.5442 6.55946 19.5252 6.55713C21.5638 6.55713 23.227 8.22213 23.227 10.2589V13.9607H19.5288ZM19.5288 15.8247C21.5655 15.8247 23.2288 17.4897 23.2288 19.5283C23.226 20.5087 22.8353 21.4482 22.142 22.1415C21.4487 22.8348 20.5092 23.2255 19.5288 23.2283H10.2611C9.28039 23.2264 8.34026 22.8364 7.64627 22.1434C6.95228 21.4503 6.56088 20.5108 6.55762 19.53C6.55762 17.4915 8.22262 15.8283 10.2594 15.8283H19.527L19.5288 15.8247ZM34.3922 19.5283C34.3922 17.4897 36.0572 15.8265 38.094 15.8265C40.1325 15.8265 41.7957 17.4897 41.7957 19.5265C41.7939 20.5076 41.4035 21.448 40.7102 22.142C40.0168 22.836 39.0768 23.2272 38.0957 23.23H34.3922V19.5283ZM32.5281 19.5283C32.5281 21.565 30.8631 23.2283 28.8246 23.2283C26.7878 23.2283 25.1246 21.565 25.1246 19.5283V10.2607C25.1246 8.22213 26.7878 6.55713 28.8246 6.55713C30.8631 6.55713 32.5263 8.22213 32.5263 10.2589V19.5265L32.5281 19.5283ZM28.8246 34.3917C30.8631 34.3917 32.5263 36.0567 32.5263 38.0917C32.5245 39.0728 32.1342 40.0131 31.4408 40.7072C30.7474 41.4012 29.8074 41.7924 28.8263 41.7952C27.8451 41.7929 26.9047 41.4022 26.2107 40.7085C25.5167 40.0149 25.1256 39.0747 25.1228 38.0935V34.3917H28.8246ZM28.8246 32.5276C26.7878 32.5276 25.1246 30.8626 25.1246 28.8258C25.1246 26.7873 26.7878 25.1241 28.8246 25.1241H38.0957C40.1325 25.1241 41.7975 26.7873 41.7975 28.8241C41.7956 29.8054 41.4051 30.7461 40.7113 31.4402C40.0175 32.1343 39.0771 32.5253 38.0957 32.5276H28.8281H28.8246Z" fill="white"/>
</g>
<rect x="0.5" y="0.5" width="47" height="47" rx="7.5" stroke="#606060"/>
</g>
<defs>
<clipPath id="clip0_2_1742">
<rect width="48" height="48" rx="8" fill="white"/>
</clipPath>
<clipPath id="clip1_2_1742">
<rect width="37" height="37" fill="white" transform="translate(5.5 5.5)"/>
</clipPath>
</defs>
</svg>
