<svg width="48" height="48" viewBox="0 0 48 48" fill="none" xmlns="http://www.w3.org/2000/svg">
<g clip-path="url(#clip0_2_1733)">
<rect width="48" height="48" rx="8" fill="#303030"/>
<g clip-path="url(#clip1_2_1733)">
<mask id="mask0_2_1733" style="mask-type:luminance" maskUnits="userSpaceOnUse" x="7" y="7" width="34" height="34">
<path d="M40.1998 7.80005H7.7998V40.2001H40.1998V7.80005Z" fill="white"/>
</mask>
<g mask="url(#mask0_2_1733)">
<path d="M7.7998 10.1207C7.7998 8.83888 8.86495 7.80005 10.1792 7.80005H37.8204C39.1346 7.80005 40.1998 8.83888 40.1998 10.1207V37.8795C40.1998 39.1613 39.1346 40.2001 37.8204 40.2001H10.1792C8.86495 40.2001 7.7998 39.1613 7.7998 37.8795V10.1207ZM17.8094 34.923V20.2923H12.9474V34.923H17.8094ZM15.3794 18.2936C17.0743 18.2936 18.1293 17.1717 18.1293 15.7664C18.099 14.3307 17.0763 13.2392 15.4118 13.2392C13.7472 13.2392 12.6598 14.3327 12.6598 15.7664C12.6598 17.1717 13.7148 18.2936 15.347 18.2936H15.3794ZM25.3181 34.923V26.7521C25.3181 26.3147 25.3505 25.8773 25.4801 25.5653C25.8304 24.6925 26.6303 23.7874 27.9749 23.7874C29.7346 23.7874 30.4373 25.1279 30.4373 27.0962V34.923H35.2993V26.5312C35.2993 22.0358 32.9017 19.946 29.7022 19.946C27.1223 19.946 25.9661 21.3635 25.3181 22.3618V22.4124H25.2857C25.2965 22.3955 25.3071 22.3787 25.3181 22.3618V20.2923H20.4581C20.5188 21.6652 20.4581 34.923 20.4581 34.923H25.3181Z" fill="white"/>
</g>
</g>
<rect x="0.5" y="0.5" width="47" height="47" rx="7.5" stroke="#606060"/>
</g>
<defs>
<clipPath id="clip0_2_1733">
<rect width="48" height="48" rx="8" fill="white"/>
</clipPath>
<clipPath id="clip1_2_1733">
<rect width="36" height="36" fill="white" transform="translate(6 6)"/>
</clipPath>
</defs>
</svg>
